<svg width="126" height="127" viewBox="0 0 126 127" fill="none" xmlns="http://www.w3.org/2000/svg">
<circle cx="63" cy="63.5" r="63" fill="#007EA7"/>
<path d="M87.8815 77.2809C86.5269 73.8567 84.5612 70.7464 82.0938 68.1232C79.6339 65.4925 76.7199 63.395 73.5127 61.9466C73.484 61.9313 73.4552 61.9236 73.4265 61.9083C77.9002 58.4598 80.8084 52.8426 80.8084 46.505C80.8084 36.0063 72.8377 27.5 63 27.5C53.1623 27.5 45.1916 36.0063 45.1916 46.505C45.1916 52.8426 48.0998 58.4598 52.5735 61.916C52.5448 61.9313 52.516 61.9389 52.4873 61.9543C49.2703 63.4026 46.3836 65.4794 43.9062 68.1309C41.4411 70.7561 39.4757 73.8659 38.1185 77.2886C36.7852 80.6394 36.0661 84.2319 36.0002 87.8716C35.9983 87.9534 36.0117 88.0348 36.0397 88.1109C36.0677 88.1871 36.1097 88.2565 36.1633 88.3151C36.2168 88.3736 36.2808 88.4201 36.3514 88.4519C36.4221 88.4837 36.498 88.5 36.5746 88.5H40.8831C41.1991 88.5 41.4504 88.2318 41.4576 87.9023C41.6012 81.9862 43.8273 76.4456 47.7623 72.2461C51.8338 67.901 57.241 65.51 63 65.51C68.759 65.51 74.1661 67.901 78.2377 72.2461C82.1727 76.4456 84.3988 81.9862 84.5424 87.9023C84.5496 88.2394 84.8009 88.5 85.1169 88.5H89.4254C89.502 88.5 89.5779 88.4837 89.6486 88.4519C89.7192 88.4201 89.7832 88.3736 89.8367 88.3151C89.8903 88.2565 89.9323 88.1871 89.9603 88.1109C89.9883 88.0348 90.0017 87.9534 89.9998 87.8716C89.928 84.2085 89.2171 80.6451 87.8815 77.2809ZM63 59.6859C59.704 59.6859 56.6019 58.3142 54.2681 55.8236C51.9344 53.333 50.649 50.0225 50.649 46.505C50.649 42.9876 51.9344 39.677 54.2681 37.1864C56.6019 34.6959 59.704 33.3241 63 33.3241C66.296 33.3241 69.3981 34.6959 71.7319 37.1864C74.0656 39.677 75.351 42.9876 75.351 46.505C75.351 50.0225 74.0656 53.333 71.7319 55.8236C69.3981 58.3142 66.296 59.6859 63 59.6859Z" fill="#FFFEFE"/>
</svg>
