<svg width="68" height="68" viewBox="0 0 68 68" fill="none" xmlns="http://www.w3.org/2000/svg">
<circle cx="34" cy="34" r="34" fill="#FFFEFE"/>
<path d="M53.313 49.1719C52.2344 46.4774 50.6691 44.03 48.7043 41.9658C46.7455 39.8957 44.4251 38.2453 41.8712 37.1055C41.8484 37.0935 41.8255 37.0874 41.8026 37.0754C45.3649 34.3618 47.6808 29.9417 47.6808 24.9548C47.6808 16.6935 41.3337 10 33.5 10C25.6663 10 19.3192 16.6935 19.3192 24.9548C19.3192 29.9417 21.6351 34.3618 25.1974 37.0814C25.1745 37.0935 25.1517 37.0995 25.1288 37.1116C22.5671 38.2513 20.2684 39.8854 18.2957 41.9719C16.3328 44.0376 14.7677 46.4846 13.687 49.1779C12.6253 51.8146 12.0526 54.6415 12.0001 57.5055C11.9986 57.5699 12.0093 57.6339 12.0316 57.6938C12.0539 57.7538 12.0874 57.8084 12.13 57.8545C12.1726 57.9006 12.2236 57.9372 12.2798 57.9622C12.3361 57.9872 12.3965 58 12.4576 58H15.8884C16.14 58 16.3401 57.7889 16.3459 57.5296C16.4602 52.8744 18.2328 48.5146 21.3663 45.2101C24.6084 41.791 28.9141 39.9095 33.5 39.9095C38.0859 39.9095 42.3916 41.791 45.6337 45.2101C48.7672 48.5146 50.5398 52.8744 50.6541 57.5296C50.6599 57.795 50.86 58 51.1116 58H54.5424C54.6035 58 54.6639 57.9872 54.7202 57.9622C54.7764 57.9372 54.8274 57.9006 54.87 57.8545C54.9126 57.8084 54.9461 57.7538 54.9684 57.6938C54.9907 57.6339 55.0014 57.5699 54.9999 57.5055C54.9427 54.6231 54.3766 51.8191 53.313 49.1719V49.1719ZM33.5 35.3266C30.8754 35.3266 28.4052 34.2472 26.5469 32.2874C24.6885 30.3276 23.665 27.7226 23.665 24.9548C23.665 22.1869 24.6885 19.5819 26.5469 17.6221C28.4052 15.6623 30.8754 14.5829 33.5 14.5829C36.1246 14.5829 38.5948 15.6623 40.4531 17.6221C42.3115 19.5819 43.335 22.1869 43.335 24.9548C43.335 27.7226 42.3115 30.3276 40.4531 32.2874C38.5948 34.2472 36.1246 35.3266 33.5 35.3266Z" fill="#00BFA6"/>
</svg>
