<svg width="328" height="59" viewBox="0 0 328 59" fill="none" xmlns="http://www.w3.org/2000/svg">
<path d="M20.064 47.48C16.672 47.48 13.6 46.744 10.848 45.272C8.128 43.768 5.984 41.704 4.416 39.08C2.88 36.456 2.112 33.496 2.112 30.2C2.112 26.904 2.896 23.944 4.464 21.32C6.032 18.696 8.176 16.648 10.896 15.176C13.648 13.672 16.72 12.92 20.112 12.92C22.864 12.92 25.376 13.4 27.648 14.36C29.92 15.32 31.84 16.712 33.408 18.536L29.376 22.328C26.944 19.704 23.952 18.392 20.4 18.392C18.096 18.392 16.032 18.904 14.208 19.928C12.384 20.92 10.96 22.312 9.936 24.104C8.912 25.896 8.4 27.928 8.4 30.2C8.4 32.472 8.912 34.504 9.936 36.296C10.96 38.088 12.384 39.496 14.208 40.52C16.032 41.512 18.096 42.008 20.4 42.008C23.952 42.008 26.944 40.68 29.376 38.024L33.408 41.864C31.84 43.688 29.904 45.08 27.6 46.04C25.328 47 22.816 47.48 20.064 47.48ZM49.3935 47.336C46.8015 47.336 44.4655 46.776 42.3855 45.656C40.3055 44.536 38.6735 42.984 37.4895 41C36.3375 38.984 35.7615 36.712 35.7615 34.184C35.7615 31.656 36.3375 29.4 37.4895 27.416C38.6735 25.432 40.3055 23.88 42.3855 22.76C44.4655 21.64 46.8015 21.08 49.3935 21.08C52.0175 21.08 54.3695 21.64 56.4495 22.76C58.5295 23.88 60.1455 25.432 61.2975 27.416C62.4815 29.4 63.0735 31.656 63.0735 34.184C63.0735 36.712 62.4815 38.984 61.2975 41C60.1455 42.984 58.5295 44.536 56.4495 45.656C54.3695 46.776 52.0175 47.336 49.3935 47.336ZM49.3935 42.2C51.6015 42.2 53.4255 41.464 54.8655 39.992C56.3055 38.52 57.0255 36.584 57.0255 34.184C57.0255 31.784 56.3055 29.848 54.8655 28.376C53.4255 26.904 51.6015 26.168 49.3935 26.168C47.1855 26.168 45.3615 26.904 43.9215 28.376C42.5135 29.848 41.8095 31.784 41.8095 34.184C41.8095 36.584 42.5135 38.52 43.9215 39.992C45.3615 41.464 47.1855 42.2 49.3935 42.2ZM83.355 21.08C86.587 21.08 89.179 22.024 91.131 23.912C93.083 25.8 94.059 28.6 94.059 32.312V47H88.059V33.08C88.059 30.84 87.531 29.16 86.475 28.04C85.419 26.888 83.915 26.312 81.963 26.312C79.755 26.312 78.011 26.984 76.731 28.328C75.451 29.64 74.811 31.544 74.811 34.04V47H68.811V21.368H74.523V24.68C75.515 23.496 76.763 22.6 78.267 21.992C79.771 21.384 81.467 21.08 83.355 21.08ZM126.001 34.328C126.001 34.744 125.969 35.336 125.905 36.104H105.793C106.145 37.992 107.057 39.496 108.529 40.616C110.033 41.704 111.889 42.248 114.097 42.248C116.913 42.248 119.233 41.32 121.057 39.464L124.273 43.16C123.121 44.536 121.665 45.576 119.905 46.28C118.145 46.984 116.161 47.336 113.953 47.336C111.137 47.336 108.657 46.776 106.513 45.656C104.369 44.536 102.705 42.984 101.521 41C100.369 38.984 99.7928 36.712 99.7928 34.184C99.7928 31.688 100.353 29.448 101.473 27.464C102.625 25.448 104.209 23.88 106.225 22.76C108.241 21.64 110.513 21.08 113.041 21.08C115.537 21.08 117.761 21.64 119.713 22.76C121.697 23.848 123.233 25.4 124.321 27.416C125.441 29.4 126.001 31.704 126.001 34.328ZM113.041 25.88C111.121 25.88 109.489 26.456 108.145 27.608C106.833 28.728 106.033 30.232 105.745 32.12H120.289C120.033 30.264 119.249 28.76 117.937 27.608C116.625 26.456 114.993 25.88 113.041 25.88ZM143.524 47.336C140.868 47.336 138.484 46.776 136.372 45.656C134.26 44.536 132.612 42.984 131.428 41C130.244 38.984 129.652 36.712 129.652 34.184C129.652 31.656 130.244 29.4 131.428 27.416C132.612 25.432 134.244 23.88 136.324 22.76C138.436 21.64 140.836 21.08 143.524 21.08C146.052 21.08 148.26 21.592 150.148 22.616C152.068 23.64 153.508 25.112 154.468 27.032L149.86 29.72C149.124 28.536 148.196 27.656 147.076 27.08C145.988 26.472 144.788 26.168 143.476 26.168C141.236 26.168 139.38 26.904 137.908 28.376C136.436 29.816 135.7 31.752 135.7 34.184C135.7 36.616 136.42 38.568 137.86 40.04C139.332 41.48 141.204 42.2 143.476 42.2C144.788 42.2 145.988 41.912 147.076 41.336C148.196 40.728 149.124 39.832 149.86 38.648L154.468 41.336C153.476 43.256 152.02 44.744 150.1 45.8C148.212 46.824 146.02 47.336 143.524 47.336ZM175.391 45.608C174.687 46.184 173.823 46.616 172.799 46.904C171.807 47.192 170.751 47.336 169.631 47.336C166.815 47.336 164.639 46.6 163.103 45.128C161.567 43.656 160.799 41.512 160.799 38.696V26.36H156.575V21.56H160.799V15.704H166.799V21.56H173.663V26.36H166.799V38.552C166.799 39.8 167.103 40.76 167.711 41.432C168.319 42.072 169.199 42.392 170.351 42.392C171.695 42.392 172.815 42.04 173.711 41.336L175.391 45.608ZM187.719 18.68H176.583V13.4H205.095V18.68H193.959V47H187.719V18.68ZM214.304 25.112C216.032 22.424 219.072 21.08 223.424 21.08V26.792C222.912 26.696 222.448 26.648 222.032 26.648C219.696 26.648 217.872 27.336 216.56 28.712C215.248 30.056 214.592 32.008 214.592 34.568V47H208.592V21.368H214.304V25.112ZM238.166 21.08C241.942 21.08 244.822 21.992 246.806 23.816C248.822 25.608 249.83 28.328 249.83 31.976V47H244.166V43.88C243.43 45 242.374 45.864 240.998 46.472C239.654 47.048 238.022 47.336 236.102 47.336C234.182 47.336 232.502 47.016 231.062 46.376C229.622 45.704 228.502 44.792 227.702 43.64C226.934 42.456 226.55 41.128 226.55 39.656C226.55 37.352 227.398 35.512 229.094 34.136C230.822 32.728 233.526 32.024 237.206 32.024H243.83V31.64C243.83 29.848 243.286 28.472 242.198 27.512C241.142 26.552 239.558 26.072 237.446 26.072C236.006 26.072 234.582 26.296 233.174 26.744C231.798 27.192 230.63 27.816 229.67 28.616L227.318 24.248C228.662 23.224 230.278 22.44 232.166 21.896C234.054 21.352 236.054 21.08 238.166 21.08ZM237.35 42.968C238.854 42.968 240.182 42.632 241.334 41.96C242.518 41.256 243.35 40.264 243.83 38.984V36.008H237.638C234.182 36.008 232.454 37.144 232.454 39.416C232.454 40.504 232.886 41.368 233.75 42.008C234.614 42.648 235.814 42.968 237.35 42.968ZM272.074 21.08C275.306 21.08 277.898 22.024 279.85 23.912C281.802 25.8 282.778 28.6 282.778 32.312V47H276.778V33.08C276.778 30.84 276.25 29.16 275.194 28.04C274.138 26.888 272.634 26.312 270.682 26.312C268.474 26.312 266.73 26.984 265.45 28.328C264.17 29.64 263.53 31.544 263.53 34.04V47H257.53V21.368H263.242V24.68C264.234 23.496 265.482 22.6 266.986 21.992C268.49 21.384 270.186 21.08 272.074 21.08Z" fill="#FFFEFE"/>
<path d="M318.2 20.3H295.775C292.85 20.3 287 21.95 287 26.9C287 31.85 292.85 33.5 295.775 33.5H317.225C320.15 33.5 326 35.15 326 40.1C326 45.05 320.15 46.7 317.225 46.7H294.8" stroke="#FFFEFE" stroke-width="4" stroke-linecap="round" stroke-linejoin="round"/>
<path d="M322.1 23.6C323.134 23.6 324.126 23.2523 324.858 22.6335C325.589 22.0146 326 21.1752 326 20.3C326 19.4248 325.589 18.5854 324.858 17.9665C324.126 17.3477 323.134 17 322.1 17C321.066 17 320.074 17.3477 319.342 17.9665C318.611 18.5854 318.2 19.4248 318.2 20.3C318.2 21.1752 318.611 22.0146 319.342 22.6335C320.074 23.2523 321.066 23.6 322.1 23.6ZM290.9 50C291.934 50 292.926 49.6523 293.658 49.0335C294.389 48.4146 294.8 47.5752 294.8 46.7C294.8 45.8248 294.389 44.9854 293.658 44.3665C292.926 43.7477 291.934 43.4 290.9 43.4C289.866 43.4 288.874 43.7477 288.142 44.3665C287.411 44.9854 287 45.8248 287 46.7C287 47.5752 287.411 48.4146 288.142 49.0335C288.874 49.6523 289.866 50 290.9 50Z" fill="#FFFEFE" stroke="#FFFEFE" stroke-width="4" stroke-linejoin="round"/>
</svg>
